<svg width="25" height="24" viewBox="0 0 25 24" fill="none" xmlns="http://www.w3.org/2000/svg">
<path fill-rule="evenodd" clip-rule="evenodd" d="M12.3036 0C5.50595 0 0.00012207 5.50583 0.00012207 12.3035C0.00012207 17.7478 3.52201 22.3463 8.41266 23.9765C9.02783 24.0842 9.25853 23.715 9.25853 23.3921C9.25853 23.0999 9.24315 22.131 9.24315 21.1005C6.15189 21.6696 5.35216 20.347 5.10609 19.6549C4.96767 19.3012 4.36787 18.2092 3.84497 17.917C3.41435 17.6863 2.79917 17.1173 3.82959 17.1019C4.7985 17.0865 5.49057 17.9939 5.72126 18.363C6.82858 20.2239 8.59721 19.701 9.30466 19.3781C9.41232 18.5783 9.73529 18.04 10.089 17.7325C7.35148 17.4249 4.49091 16.3637 4.49091 11.6576C4.49091 10.3196 4.96767 9.21227 5.75202 8.35102C5.62898 8.04343 5.19836 6.78232 5.87506 5.09058C5.87506 5.09058 6.90548 4.76762 9.25853 6.3517C10.2428 6.07487 11.2886 5.93645 12.3344 5.93645C13.3802 5.93645 14.426 6.07487 15.4103 6.3517C17.7633 4.75224 18.7938 5.09058 18.7938 5.09058C19.4705 6.78232 19.0398 8.04343 18.9168 8.35102C19.7011 9.21227 20.1779 10.3042 20.1779 11.6576C20.1779 16.3791 17.302 17.4249 14.5644 17.7325C15.0104 18.1169 15.3949 18.8552 15.3949 20.0086C15.3949 21.6542 15.3795 22.9768 15.3795 23.3921C15.3795 23.715 15.6102 24.0995 16.2254 23.9765C18.6678 23.1519 20.7901 21.5821 22.2937 19.4882C23.7974 17.3941 24.6064 14.8814 24.6072 12.3035C24.6072 5.50583 19.1013 0 12.3036 0Z" fill="#4EE1A0"/>
</svg>
